solid OpenSCAD_Model
  facet normal 0.966583 -0.256353 0
    outer loop
      vertex 9.2388 -2.87012 3
      vertex 10 0 0
      vertex 10 0 3
    endloop
  endfacet
  facet normal 0.966583 -0.256353 0
    outer loop
      vertex 10 0 0
      vertex 9.2388 -2.87012 3
      vertex 9.2388 -2.87012 0
    endloop
  endfacet
  facet normal 0 0 -1
    outer loop
      vertex 8.5 0 0
      vertex 10 0 0
      vertex 9.2388 -2.87012 0
    endloop
  endfacet
  facet normal 0 0 -1
    outer loop
      vertex 10 0 0
      vertex 8.5 0 0
      vertex 9.2388 2.87012 0
    endloop
  endfacet
  facet normal 0 0 -1
    outer loop
      vertex 6.75 -3.03109 0
      vertex 9.2388 -2.87012 0
      vertex 7.07107 -5.3033 0
    endloop
  endfacet
  facet normal -0 0 -1
    outer loop
      vertex 9.2388 -2.87012 0
      vertex 6.75 -3.03109 0
      vertex 8.5 0 0
    endloop
  endfacet
  facet normal 0 0 -1
    outer loop
      vertex 3.25 -3.03109 0
      vertex 7.07107 -5.3033 0
      vertex 3.82683 -6.9291 0
    endloop
  endfacet
  facet normal 0 0 -1
    outer loop
      vertex 7.07107 -5.3033 0
      vertex 3.25 -3.03109 0
      vertex 6.75 -3.03109 0
    endloop
  endfacet
  facet normal 0 0 -1
    outer loop
      vertex 0 -7.5 0
      vertex 3.25 -3.03109 0
      vertex 3.82683 -6.9291 0
    endloop
  endfacet
  facet normal -0 0 -1
    outer loop
      vertex 3.25 -3.03109 0
      vertex 0 -7.5 0
      vertex 1.5 0 0
    endloop
  endfacet
  facet normal 0 0 -1
    outer loop
      vertex 6.75 3.03109 0
      vertex 9.2388 2.87012 0
      vertex 8.5 0 0
    endloop
  endfacet
  facet normal 0 0 -1
    outer loop
      vertex 9.2388 2.87012 0
      vertex 6.75 3.03109 0
      vertex 7.07107 5.3033 0
    endloop
  endfacet
  facet normal 0 0 -1
    outer loop
      vertex 3.25 3.03109 0
      vertex 7.07107 5.3033 0
      vertex 6.75 3.03109 0
    endloop
  endfacet
  facet normal -0 0 -1
    outer loop
      vertex 7.07107 5.3033 0
      vertex 3.25 3.03109 0
      vertex 3.82683 6.9291 0
    endloop
  endfacet
  facet normal 0 0 -1
    outer loop
      vertex 0 7.5 0
      vertex 3.25 3.03109 0
      vertex 1.5 0 0
    endloop
  endfacet
  facet normal 0 0 -1
    outer loop
      vertex 3.25 3.03109 0
      vertex 0 7.5 0
      vertex 3.82683 6.9291 0
    endloop
  endfacet
  facet normal 0 0 -1
    outer loop
      vertex -3.82683 -6.9291 0
      vertex 1.5 0 0
      vertex 0 -7.5 0
    endloop
  endfacet
  facet normal 0 0 -1
    outer loop
      vertex -7.07107 -5.3033 0
      vertex 1.5 0 0
      vertex -3.82683 -6.9291 0
    endloop
  endfacet
  facet normal 0 0 -1
    outer loop
      vertex 1.5 0 0
      vertex -3.82683 6.9291 0
      vertex 0 7.5 0
    endloop
  endfacet
  facet normal 0 0 -1
    outer loop
      vertex -9.2388 -2.87012 0
      vertex 1.5 0 0
      vertex -7.07107 -5.3033 0
    endloop
  endfacet
  facet normal 0 0 -1
    outer loop
      vertex 1.5 0 0
      vertex -7.07107 5.3033 0
      vertex -3.82683 6.9291 0
    endloop
  endfacet
  facet normal 0 0 -1
    outer loop
      vertex -9.2388 2.87012 0
      vertex 1.5 0 0
      vertex -9.2388 -2.87012 0
    endloop
  endfacet
  facet normal 0 0 -1
    outer loop
      vertex 1.5 0 0
      vertex -9.2388 2.87012 0
      vertex -7.07107 5.3033 0
    endloop
  endfacet
  facet normal 0 -0 -1
    outer loop
      vertex -9.2388 2.87012 0
      vertex -9.2388 -2.87012 0
      vertex -10 0 0
    endloop
  endfacet
  facet normal -0.966583 0.256353 0
    outer loop
      vertex -10 0 0
      vertex -9.2388 2.87012 3
      vertex -9.2388 2.87012 0
    endloop
  endfacet
  facet normal -0.966583 0.256353 0
    outer loop
      vertex -9.2388 2.87012 3
      vertex -10 0 0
      vertex -10 0 3
    endloop
  endfacet
  facet normal 0.147551 -0.989055 0
    outer loop
      vertex 0 -7.5 0
      vertex 3.82683 -6.9291 3
      vertex 0 -7.5 3
    endloop
  endfacet
  facet normal 0.147551 -0.989055 0
    outer loop
      vertex 3.82683 -6.9291 3
      vertex 0 -7.5 0
      vertex 3.82683 -6.9291 0
    endloop
  endfacet
  facet normal 0 0 1
    outer loop
      vertex 0 -7.5 3
      vertex -4.75302 -1.56366 3
      vertex -3.82683 -6.9291 3
    endloop
  endfacet
  facet normal 0 0 1
    outer loop
      vertex -7.07107 -5.3033 3
      vertex -4.75302 -1.56366 3
      vertex -6.44504 -1.94986 3
    endloop
  endfacet
  facet normal 0 0 1
    outer loop
      vertex -4.75302 -1.56366 3
      vertex -7.07107 -5.3033 3
      vertex -3.82683 -6.9291 3
    endloop
  endfacet
  facet normal 0 0 1
    outer loop
      vertex -9.2388 -2.87012 3
      vertex -6.44504 -1.94986 3
      vertex -7.80194 -0.867767 3
    endloop
  endfacet
  facet normal 0 0 1
    outer loop
      vertex -7.80194 0.867767 3
      vertex -10 0 3
      vertex -7.80194 -0.867767 3
    endloop
  endfacet
  facet normal 0 0 1
    outer loop
      vertex -6.44504 -1.94986 3
      vertex -9.2388 -2.87012 3
      vertex -7.07107 -5.3033 3
    endloop
  endfacet
  facet normal 0 0 1
    outer loop
      vertex -7.80194 -0.867767 3
      vertex -10 0 3
      vertex -9.2388 -2.87012 3
    endloop
  endfacet
  facet normal 0 0 1
    outer loop
      vertex 8.5 0 3
      vertex 10 0 3
      vertex 9.2388 2.87012 3
    endloop
  endfacet
  facet normal 0 0 1
    outer loop
      vertex 10 0 3
      vertex 8.5 0 3
      vertex 9.2388 -2.87012 3
    endloop
  endfacet
  facet normal -0 0 1
    outer loop
      vertex 6.75 3.03109 3
      vertex 9.2388 2.87012 3
      vertex 7.07107 5.3033 3
    endloop
  endfacet
  facet normal 0 0 1
    outer loop
      vertex 9.2388 2.87012 3
      vertex 6.75 3.03109 3
      vertex 8.5 0 3
    endloop
  endfacet
  facet normal 0 0 1
    outer loop
      vertex 3.25 3.03109 3
      vertex 7.07107 5.3033 3
      vertex 3.82683 6.9291 3
    endloop
  endfacet
  facet normal 0 0 1
    outer loop
      vertex 7.07107 5.3033 3
      vertex 3.25 3.03109 3
      vertex 6.75 3.03109 3
    endloop
  endfacet
  facet normal 0 0 1
    outer loop
      vertex 0 7.5 3
      vertex 3.25 3.03109 3
      vertex 3.82683 6.9291 3
    endloop
  endfacet
  facet normal 0 0 1
    outer loop
      vertex 3.25 3.03109 3
      vertex 0 7.5 3
      vertex 1.5 0 3
    endloop
  endfacet
  facet normal 0 0 1
    outer loop
      vertex 6.75 -3.03109 3
      vertex 9.2388 -2.87012 3
      vertex 8.5 0 3
    endloop
  endfacet
  facet normal 0 0 1
    outer loop
      vertex 9.2388 -2.87012 3
      vertex 6.75 -3.03109 3
      vertex 7.07107 -5.3033 3
    endloop
  endfacet
  facet normal -0 0 1
    outer loop
      vertex 3.25 -3.03109 3
      vertex 7.07107 -5.3033 3
      vertex 6.75 -3.03109 3
    endloop
  endfacet
  facet normal 0 0 1
    outer loop
      vertex 7.07107 -5.3033 3
      vertex 3.25 -3.03109 3
      vertex 3.82683 -6.9291 3
    endloop
  endfacet
  facet normal 0 0 1
    outer loop
      vertex 0 -7.5 3
      vertex 3.25 -3.03109 3
      vertex 1.5 0 3
    endloop
  endfacet
  facet normal 0 0 1
    outer loop
      vertex 3.25 -3.03109 3
      vertex 0 -7.5 3
      vertex 3.82683 -6.9291 3
    endloop
  endfacet
  facet normal -0 0 1
    outer loop
      vertex -4.75302 1.56366 3
      vertex 1.5 0 3
      vertex 0 7.5 3
    endloop
  endfacet
  facet normal 0 0 1
    outer loop
      vertex -4.75302 1.56366 3
      vertex 0 7.5 3
      vertex -3.82683 6.9291 3
    endloop
  endfacet
  facet normal 0 0 1
    outer loop
      vertex -4.75302 -1.56366 3
      vertex 1.5 0 3
      vertex -4 0 3
    endloop
  endfacet
  facet normal 0 0 1
    outer loop
      vertex 1.5 0 3
      vertex -4.75302 -1.56366 3
      vertex 0 -7.5 3
    endloop
  endfacet
  facet normal 0 0 1
    outer loop
      vertex 1.5 0 3
      vertex -4.75302 1.56366 3
      vertex -4 0 3
    endloop
  endfacet
  facet normal -0 0 1
    outer loop
      vertex -7.07107 5.3033 3
      vertex -4.75302 1.56366 3
      vertex -3.82683 6.9291 3
    endloop
  endfacet
  facet normal 0 0 1
    outer loop
      vertex -4.75302 1.56366 3
      vertex -7.07107 5.3033 3
      vertex -6.44504 1.94986 3
    endloop
  endfacet
  facet normal -0 0 1
    outer loop
      vertex -9.2388 2.87012 3
      vertex -6.44504 1.94986 3
      vertex -7.07107 5.3033 3
    endloop
  endfacet
  facet normal 0 0 1
    outer loop
      vertex -10 0 3
      vertex -7.80194 0.867767 3
      vertex -9.2388 2.87012 3
    endloop
  endfacet
  facet normal 0 0 1
    outer loop
      vertex -6.44504 1.94986 3
      vertex -9.2388 2.87012 3
      vertex -7.80194 0.867767 3
    endloop
  endfacet
  facet normal 0.448025 -0.894021 0
    outer loop
      vertex 3.82683 -6.9291 0
      vertex 7.07107 -5.3033 3
      vertex 3.82683 -6.9291 3
    endloop
  endfacet
  facet normal 0.448025 -0.894021 0
    outer loop
      vertex 7.07107 -5.3033 3
      vertex 3.82683 -6.9291 0
      vertex 7.07107 -5.3033 0
    endloop
  endfacet
  facet normal 0.746662 -0.665204 0
    outer loop
      vertex 7.07107 -5.3033 3
      vertex 9.2388 -2.87012 0
      vertex 9.2388 -2.87012 3
    endloop
  endfacet
  facet normal 0.746662 -0.665204 0
    outer loop
      vertex 9.2388 -2.87012 0
      vertex 7.07107 -5.3033 3
      vertex 7.07107 -5.3033 0
    endloop
  endfacet
  facet normal -0.746662 0.665204 0
    outer loop
      vertex -9.2388 2.87012 0
      vertex -7.07107 5.3033 3
      vertex -7.07107 5.3033 0
    endloop
  endfacet
  facet normal -0.746662 0.665204 0
    outer loop
      vertex -7.07107 5.3033 3
      vertex -9.2388 2.87012 0
      vertex -9.2388 2.87012 3
    endloop
  endfacet
  facet normal -0.966583 -0.256353 0
    outer loop
      vertex -9.2388 -2.87012 0
      vertex -10 0 3
      vertex -10 0 0
    endloop
  endfacet
  facet normal -0.966583 -0.256353 0
    outer loop
      vertex -10 0 3
      vertex -9.2388 -2.87012 0
      vertex -9.2388 -2.87012 3
    endloop
  endfacet
  facet normal -0.448025 -0.894021 0
    outer loop
      vertex -7.07107 -5.3033 0
      vertex -3.82683 -6.9291 3
      vertex -7.07107 -5.3033 3
    endloop
  endfacet
  facet normal -0.448025 -0.894021 -0
    outer loop
      vertex -3.82683 -6.9291 3
      vertex -7.07107 -5.3033 0
      vertex -3.82683 -6.9291 0
    endloop
  endfacet
  facet normal 0.746662 0.665204 0
    outer loop
      vertex 9.2388 2.87012 3
      vertex 7.07107 5.3033 0
      vertex 7.07107 5.3033 3
    endloop
  endfacet
  facet normal 0.746662 0.665204 0
    outer loop
      vertex 7.07107 5.3033 0
      vertex 9.2388 2.87012 3
      vertex 9.2388 2.87012 0
    endloop
  endfacet
  facet normal 0.147551 0.989055 -0
    outer loop
      vertex 3.82683 6.9291 0
      vertex 0 7.5 3
      vertex 3.82683 6.9291 3
    endloop
  endfacet
  facet normal 0.147551 0.989055 0
    outer loop
      vertex 0 7.5 3
      vertex 3.82683 6.9291 0
      vertex 0 7.5 0
    endloop
  endfacet
  facet normal 0.966583 0.256353 0
    outer loop
      vertex 10 0 3
      vertex 9.2388 2.87012 0
      vertex 9.2388 2.87012 3
    endloop
  endfacet
  facet normal 0.966583 0.256353 0
    outer loop
      vertex 9.2388 2.87012 0
      vertex 10 0 3
      vertex 10 0 0
    endloop
  endfacet
  facet normal -0.448025 0.894021 0
    outer loop
      vertex -3.82683 6.9291 0
      vertex -7.07107 5.3033 3
      vertex -3.82683 6.9291 3
    endloop
  endfacet
  facet normal -0.448025 0.894021 0
    outer loop
      vertex -7.07107 5.3033 3
      vertex -3.82683 6.9291 0
      vertex -7.07107 5.3033 0
    endloop
  endfacet
  facet normal -0.147551 0.989055 0
    outer loop
      vertex 0 7.5 0
      vertex -3.82683 6.9291 3
      vertex 0 7.5 3
    endloop
  endfacet
  facet normal -0.147551 0.989055 0
    outer loop
      vertex -3.82683 6.9291 3
      vertex 0 7.5 0
      vertex -3.82683 6.9291 0
    endloop
  endfacet
  facet normal -0.746662 -0.665204 0
    outer loop
      vertex -7.07107 -5.3033 0
      vertex -9.2388 -2.87012 3
      vertex -9.2388 -2.87012 0
    endloop
  endfacet
  facet normal -0.746662 -0.665204 0
    outer loop
      vertex -9.2388 -2.87012 3
      vertex -7.07107 -5.3033 0
      vertex -7.07107 -5.3033 3
    endloop
  endfacet
  facet normal -0.147551 -0.989055 0
    outer loop
      vertex -3.82683 -6.9291 0
      vertex 0 -7.5 3
      vertex -3.82683 -6.9291 3
    endloop
  endfacet
  facet normal -0.147551 -0.989055 -0
    outer loop
      vertex 0 -7.5 3
      vertex -3.82683 -6.9291 0
      vertex 0 -7.5 0
    endloop
  endfacet
  facet normal 0.448025 0.894021 -0
    outer loop
      vertex 7.07107 5.3033 0
      vertex 3.82683 6.9291 3
      vertex 7.07107 5.3033 3
    endloop
  endfacet
  facet normal 0.448025 0.894021 0
    outer loop
      vertex 3.82683 6.9291 3
      vertex 7.07107 5.3033 0
      vertex 3.82683 6.9291 0
    endloop
  endfacet
  facet normal 0 1 -0
    outer loop
      vertex 6.75 -3.03109 0
      vertex 3.25 -3.03109 3
      vertex 6.75 -3.03109 3
    endloop
  endfacet
  facet normal 0 1 0
    outer loop
      vertex 3.25 -3.03109 3
      vertex 6.75 -3.03109 0
      vertex 3.25 -3.03109 0
    endloop
  endfacet
  facet normal -0.866025 0.5 0
    outer loop
      vertex 6.75 -3.03109 0
      vertex 8.5 0 3
      vertex 8.5 0 0
    endloop
  endfacet
  facet normal -0.866025 0.5 0
    outer loop
      vertex 8.5 0 3
      vertex 6.75 -3.03109 0
      vertex 6.75 -3.03109 3
    endloop
  endfacet
  facet normal -0.866025 -0.5 0
    outer loop
      vertex 8.5 0 0
      vertex 6.75 3.03109 3
      vertex 6.75 3.03109 0
    endloop
  endfacet
  facet normal -0.866025 -0.5 0
    outer loop
      vertex 6.75 3.03109 3
      vertex 8.5 0 0
      vertex 8.5 0 3
    endloop
  endfacet
  facet normal 0.866025 0.5 0
    outer loop
      vertex 3.25 -3.03109 3
      vertex 1.5 0 0
      vertex 1.5 0 3
    endloop
  endfacet
  facet normal 0.866025 0.5 0
    outer loop
      vertex 1.5 0 0
      vertex 3.25 -3.03109 3
      vertex 3.25 -3.03109 0
    endloop
  endfacet
  facet normal 0.866025 -0.5 0
    outer loop
      vertex 1.5 0 3
      vertex 3.25 3.03109 0
      vertex 3.25 3.03109 3
    endloop
  endfacet
  facet normal 0.866025 -0.5 0
    outer loop
      vertex 3.25 3.03109 0
      vertex 1.5 0 3
      vertex 1.5 0 0
    endloop
  endfacet
  facet normal 0 -1 0
    outer loop
      vertex 3.25 3.03109 0
      vertex 6.75 3.03109 3
      vertex 3.25 3.03109 3
    endloop
  endfacet
  facet normal 0 -1 -0
    outer loop
      vertex 6.75 3.03109 3
      vertex 3.25 3.03109 0
      vertex 6.75 3.03109 0
    endloop
  endfacet
  facet normal 0.900969 0.433884 0
    outer loop
      vertex -4 0 12
      vertex -4.75302 1.56366 3
      vertex -4.75302 1.56366 12
    endloop
  endfacet
  facet normal 0.900969 0.433884 0
    outer loop
      vertex -4.75302 1.56366 3
      vertex -4 0 12
      vertex -4 0 3
    endloop
  endfacet
  facet normal -1 0 0
    outer loop
      vertex -7.80194 -0.867767 3
      vertex -7.80194 0.867767 12
      vertex -7.80194 0.867767 3
    endloop
  endfacet
  facet normal -1 -0 0
    outer loop
      vertex -7.80194 0.867767 12
      vertex -7.80194 -0.867767 3
      vertex -7.80194 -0.867767 12
    endloop
  endfacet
  facet normal 0.222525 0.974927 -0
    outer loop
      vertex -4.75302 1.56366 3
      vertex -6.44504 1.94986 12
      vertex -4.75302 1.56366 12
    endloop
  endfacet
  facet normal 0.222525 0.974927 0
    outer loop
      vertex -6.44504 1.94986 12
      vertex -4.75302 1.56366 3
      vertex -6.44504 1.94986 3
    endloop
  endfacet
  facet normal 0 0 1
    outer loop
      vertex -4.75302 1.56366 12
      vertex -4.75302 -1.56366 12
      vertex -4 0 12
    endloop
  endfacet
  facet normal 0 0 1
    outer loop
      vertex -6.44504 1.94986 12
      vertex -4.75302 -1.56366 12
      vertex -4.75302 1.56366 12
    endloop
  endfacet
  facet normal 0 0 1
    outer loop
      vertex -6.44504 1.94986 12
      vertex -6.44504 -1.94986 12
      vertex -4.75302 -1.56366 12
    endloop
  endfacet
  facet normal -0 0 1
    outer loop
      vertex -7.80194 0.867767 12
      vertex -6.44504 -1.94986 12
      vertex -6.44504 1.94986 12
    endloop
  endfacet
  facet normal 0 0 1
    outer loop
      vertex -6.44504 -1.94986 12
      vertex -7.80194 0.867767 12
      vertex -7.80194 -0.867767 12
    endloop
  endfacet
  facet normal -0.62349 0.781831 0
    outer loop
      vertex -6.44504 1.94986 3
      vertex -7.80194 0.867767 12
      vertex -6.44504 1.94986 12
    endloop
  endfacet
  facet normal -0.62349 0.781831 0
    outer loop
      vertex -7.80194 0.867767 12
      vertex -6.44504 1.94986 3
      vertex -7.80194 0.867767 3
    endloop
  endfacet
  facet normal 0.222525 -0.974927 0
    outer loop
      vertex -6.44504 -1.94986 3
      vertex -4.75302 -1.56366 12
      vertex -6.44504 -1.94986 12
    endloop
  endfacet
  facet normal 0.222525 -0.974927 0
    outer loop
      vertex -4.75302 -1.56366 12
      vertex -6.44504 -1.94986 3
      vertex -4.75302 -1.56366 3
    endloop
  endfacet
  facet normal -0.62349 -0.781831 0
    outer loop
      vertex -7.80194 -0.867767 3
      vertex -6.44504 -1.94986 12
      vertex -7.80194 -0.867767 12
    endloop
  endfacet
  facet normal -0.62349 -0.781831 -0
    outer loop
      vertex -6.44504 -1.94986 12
      vertex -7.80194 -0.867767 3
      vertex -6.44504 -1.94986 3
    endloop
  endfacet
  facet normal 0.900969 -0.433884 0
    outer loop
      vertex -4.75302 -1.56366 12
      vertex -4 0 3
      vertex -4 0 12
    endloop
  endfacet
  facet normal 0.900969 -0.433884 0
    outer loop
      vertex -4 0 3
      vertex -4.75302 -1.56366 12
      vertex -4.75302 -1.56366 3
    endloop
  endfacet
endsolid OpenSCAD_Model
