solid OpenSCAD_Model
  facet normal 0 0 -1
    outer loop
      vertex 1.75 3.03109 0
      vertex 3.5 0 0
      vertex 1.75 -3.03109 0
    endloop
  endfacet
  facet normal 0 -0 -1
    outer loop
      vertex -1.75 3.03109 0
      vertex -1.75 -3.03109 0
      vertex -3.5 0 0
    endloop
  endfacet
  facet normal -0 -0 -1
    outer loop
      vertex 1.75 3.03109 0
      vertex 1.75 -3.03109 0
      vertex -1.75 3.03109 0
    endloop
  endfacet
  facet normal 0 0 -1
    outer loop
      vertex -1.75 3.03109 0
      vertex 1.75 -3.03109 0
      vertex -1.75 -3.03109 0
    endloop
  endfacet
  facet normal 0 0 1
    outer loop
      vertex 1.75 -3.03109 50
      vertex 3.5 0 50
      vertex 1.75 3.03109 50
    endloop
  endfacet
  facet normal -0 0 1
    outer loop
      vertex -3.5 0 50
      vertex -1.75 -3.03109 50
      vertex -1.75 3.03109 50
    endloop
  endfacet
  facet normal -0 0 1
    outer loop
      vertex -1.75 3.03109 50
      vertex 1.75 -3.03109 50
      vertex 1.75 3.03109 50
    endloop
  endfacet
  facet normal 0 0 1
    outer loop
      vertex -1.75 -3.03109 50
      vertex 1.75 -3.03109 50
      vertex -1.75 3.03109 50
    endloop
  endfacet
  facet normal 0.866025 0.5 0
    outer loop
      vertex 1.75 3.03109 0
      vertex 3.5 0 50
      vertex 3.5 0 0
    endloop
  endfacet
  facet normal 0.866025 0.5 -0
    outer loop
      vertex 1.75 3.03109 0
      vertex 1.75 3.03109 50
      vertex 3.5 0 50
    endloop
  endfacet
  facet normal 0 1 0
    outer loop
      vertex -1.75 3.03109 0
      vertex 1.75 3.03109 50
      vertex 1.75 3.03109 0
    endloop
  endfacet
  facet normal 0 1 0
    outer loop
      vertex -1.75 3.03109 0
      vertex -1.75 3.03109 50
      vertex 1.75 3.03109 50
    endloop
  endfacet
  facet normal -0.866025 0.5 0
    outer loop
      vertex -3.5 0 0
      vertex -1.75 3.03109 50
      vertex -1.75 3.03109 0
    endloop
  endfacet
  facet normal -0.866025 0.5 0
    outer loop
      vertex -3.5 0 0
      vertex -3.5 0 50
      vertex -1.75 3.03109 50
    endloop
  endfacet
  facet normal -0.866025 -0.5 0
    outer loop
      vertex -1.75 -3.03109 0
      vertex -3.5 0 50
      vertex -3.5 0 0
    endloop
  endfacet
  facet normal -0.866025 -0.5 0
    outer loop
      vertex -1.75 -3.03109 0
      vertex -1.75 -3.03109 50
      vertex -3.5 0 50
    endloop
  endfacet
  facet normal 0 -1 0
    outer loop
      vertex 1.75 -3.03109 0
      vertex -1.75 -3.03109 50
      vertex -1.75 -3.03109 0
    endloop
  endfacet
  facet normal 0 -1 0
    outer loop
      vertex 1.75 -3.03109 0
      vertex 1.75 -3.03109 50
      vertex -1.75 -3.03109 50
    endloop
  endfacet
  facet normal 0.866025 -0.5 0
    outer loop
      vertex 3.5 0 0
      vertex 1.75 -3.03109 50
      vertex 1.75 -3.03109 0
    endloop
  endfacet
  facet normal 0.866025 -0.5 0
    outer loop
      vertex 3.5 0 0
      vertex 3.5 0 50
      vertex 1.75 -3.03109 50
    endloop
  endfacet
endsolid OpenSCAD_Model
