solid OpenSCAD_Model
  facet normal 0 0 -1
    outer loop
      vertex 1.625 2.81458 0
      vertex 3.25 0 0
      vertex 1.625 -2.81458 0
    endloop
  endfacet
  facet normal 0 -0 -1
    outer loop
      vertex -1.625 2.81458 0
      vertex -1.625 -2.81458 0
      vertex -3.25 0 0
    endloop
  endfacet
  facet normal -0 -0 -1
    outer loop
      vertex 1.625 2.81458 0
      vertex 1.625 -2.81458 0
      vertex -1.625 2.81458 0
    endloop
  endfacet
  facet normal 0 0 -1
    outer loop
      vertex -1.625 2.81458 0
      vertex 1.625 -2.81458 0
      vertex -1.625 -2.81458 0
    endloop
  endfacet
  facet normal 0 0 1
    outer loop
      vertex 1.625 -2.81458 30
      vertex 3.25 0 30
      vertex 1.625 2.81458 30
    endloop
  endfacet
  facet normal -0 0 1
    outer loop
      vertex -3.25 0 30
      vertex -1.625 -2.81458 30
      vertex -1.625 2.81458 30
    endloop
  endfacet
  facet normal -0 0 1
    outer loop
      vertex -1.625 2.81458 30
      vertex 1.625 -2.81458 30
      vertex 1.625 2.81458 30
    endloop
  endfacet
  facet normal 0 0 1
    outer loop
      vertex -1.625 -2.81458 30
      vertex 1.625 -2.81458 30
      vertex -1.625 2.81458 30
    endloop
  endfacet
  facet normal 0.866025 0.5 0
    outer loop
      vertex 1.625 2.81458 0
      vertex 3.25 0 30
      vertex 3.25 0 0
    endloop
  endfacet
  facet normal 0.866025 0.5 -0
    outer loop
      vertex 1.625 2.81458 0
      vertex 1.625 2.81458 30
      vertex 3.25 0 30
    endloop
  endfacet
  facet normal 0 1 0
    outer loop
      vertex -1.625 2.81458 0
      vertex 1.625 2.81458 30
      vertex 1.625 2.81458 0
    endloop
  endfacet
  facet normal 0 1 0
    outer loop
      vertex -1.625 2.81458 0
      vertex -1.625 2.81458 30
      vertex 1.625 2.81458 30
    endloop
  endfacet
  facet normal -0.866025 0.5 0
    outer loop
      vertex -3.25 0 0
      vertex -1.625 2.81458 30
      vertex -1.625 2.81458 0
    endloop
  endfacet
  facet normal -0.866025 0.5 0
    outer loop
      vertex -3.25 0 0
      vertex -3.25 0 30
      vertex -1.625 2.81458 30
    endloop
  endfacet
  facet normal -0.866025 -0.5 0
    outer loop
      vertex -1.625 -2.81458 0
      vertex -3.25 0 30
      vertex -3.25 0 0
    endloop
  endfacet
  facet normal -0.866025 -0.5 0
    outer loop
      vertex -1.625 -2.81458 0
      vertex -1.625 -2.81458 30
      vertex -3.25 0 30
    endloop
  endfacet
  facet normal 0 -1 0
    outer loop
      vertex 1.625 -2.81458 0
      vertex -1.625 -2.81458 30
      vertex -1.625 -2.81458 0
    endloop
  endfacet
  facet normal 0 -1 0
    outer loop
      vertex 1.625 -2.81458 0
      vertex 1.625 -2.81458 30
      vertex -1.625 -2.81458 30
    endloop
  endfacet
  facet normal 0.866025 -0.5 0
    outer loop
      vertex 3.25 0 0
      vertex 1.625 -2.81458 30
      vertex 1.625 -2.81458 0
    endloop
  endfacet
  facet normal 0.866025 -0.5 0
    outer loop
      vertex 3.25 0 0
      vertex 3.25 0 30
      vertex 1.625 -2.81458 30
    endloop
  endfacet
endsolid OpenSCAD_Model
